<svg xmlns="http://www.w3.org/2000/svg" viewBox="0 0 512 512" aria-label="WhatsApp">
  <defs>
    <linearGradient id="wa-bg" x1="0" y1="0" x2="0" y2="1">
      <stop offset="0" stop-color="#5BD066"/>
      <stop offset="1" stop-color="#27B43E"/>
    </linearGradient>
  </defs>
  <rect width="512" height="512" rx="115" ry="115" fill="url(#wa-bg)"/>
  <path fill="#fff" d="M373.5 138.5C342.4 107.3 301 90 257 90c-90.8 0-164.7 73.9-164.7 164.7 0 29 7.6 57.3 22 82.3L91 422l86.9-22.8c24.1 13.2 51.3 20.1 79 20.1h.1c90.8 0 167.5-73.9 167.5-164.7 0-44-19.1-85.4-50.5-116.1zM257 391.1h-.1c-24.7 0-48.9-6.6-70-19.1l-5-3-51.5 13.5 13.7-50.2-3.3-5.2c-13.7-21.9-21-47.1-21-73.4 0-75.5 61.4-136.9 136.9-136.9 36.6 0 70.9 14.3 96.8 40.2 25.8 25.8 41.4 60.2 41.4 96.8 0 75.5-62.6 136.9-138 136.9zm75.2-102.6c-4.1-2.1-24.4-12-28.2-13.4s-6.5-2.1-9.3 2.1c-2.7 4.1-10.7 13.4-13.1 16.2s-4.8 3.1-8.9 1c-24.4-12.2-40.4-21.7-56.5-49.2-4.3-7.4 4.3-6.9 12.2-22.9 1.4-2.7.7-5.2-.3-7.2s-9.3-22.4-12.7-30.7c-3.4-8.1-6.8-7-9.3-7.2-2.4-.1-5.2-.2-7.9-.2s-7.2 1-11 5.2c-3.8 4.1-14.4 14.1-14.4 34.4s14.8 39.9 16.9 42.7c2.1 2.7 29 44.4 70.4 62.3 26.2 11.3 36.4 12.3 49.5 10.4 8-1.2 24.4-10 27.9-19.6 3.4-9.6 3.4-17.8 2.4-19.6-1-1.7-3.7-2.7-7.7-4.8z"/>
</svg>
